<?xml version="1.0" standalone="no"?>
<!DOCTYPE svg PUBLIC "-//W3C//DTD SVG 20010904//EN"
 "http://www.w3.org/TR/2001/REC-SVG-20010904/DTD/svg10.dtd">
<svg version="1.0" xmlns="http://www.w3.org/2000/svg"
 width="126.000000pt" height="126.000000pt" viewBox="0 0 126.000000 126.000000"
 preserveAspectRatio="xMidYMid meet">
<metadata>
Created by potrace 1.11, written by Peter Selinger 2001-2013
</metadata>
<g transform="translate(0.000000,126.000000) scale(0.100000,-0.100000)"
fill="#000000" stroke="none">
<path d="M0 630 l0 -630 630 0 630 0 0 630 0 630 -630 0 -630 0 0 -630z m800
264 c54 -31 80 -77 80 -141 0 -59 -15 -96 -52 -129 -37 -34 -83 -44 -199 -44
l-109 0 0 -135 0 -135 -45 0 -45 0 0 306 0 306 168 -4 c147 -3 171 -5 202 -24z"/>
<path d="M520 744 l0 -106 98 4 c116 5 155 21 172 72 9 27 8 41 -4 69 -22 53
-58 67 -171 67 l-95 0 0 -106z"/>
</g>
</svg>
